<svg id="Layer_1" data-name="Layer 1" xmlns="http://www.w3.org/2000/svg" viewBox="0 0 1033.06 648.09"><defs><style>.cls-1{fill:#fff;}.cls-1,.cls-10,.cls-11,.cls-14,.cls-16,.cls-17,.cls-2,.cls-3,.cls-4,.cls-5,.cls-6,.cls-7,.cls-8,.cls-9{stroke:#000;stroke-miterlimit:10;}.cls-1,.cls-3,.cls-4,.cls-5{stroke-width:16.99px;}.cls-14,.cls-2,.cls-6,.cls-7,.cls-8,.cls-9{fill:none;stroke-width:16.99px;}.cls-10,.cls-11,.cls-14,.cls-16,.cls-17,.cls-2,.cls-4,.cls-5,.cls-6,.cls-7,.cls-8,.cls-9{stroke-linecap:round;}.cls-2{stroke-dasharray:50.97;}.cls-13,.cls-2{opacity:0.43;}.cls-3{fill:#ed1c24;}.cls-11,.cls-4{fill:#22b573;}.cls-10,.cls-5{fill:#00a99d;}.cls-7{stroke-dasharray:51.16 51.16;}.cls-8{stroke-dasharray:53.31 53.31;}.cls-9{stroke-dasharray:52.92 52.92;}.cls-10,.cls-11{stroke-width:9.71px;stroke-dasharray:77;}.cls-12{font-size:50px;}.cls-12,.cls-15,.cls-18{font-family:FranklinGothic-Medium, Franklin Gothic Medium;font-weight:500;}.cls-14{stroke-dasharray:50.97 50.97;}.cls-15{font-size:48px;}.cls-16,.cls-17{fill:#fcee21;}.cls-16{stroke-width:15.1px;stroke-dasharray:119.73;}.cls-17{stroke-width:15.1px;stroke-dasharray:310.09;}.cls-18{font-size:44px;}</style></defs><rect class="cls-1" x="644.45" y="31.96" width="631.1" height="1016.07" transform="translate(1056.53 -635.95) rotate(90)"/><line class="cls-2" x1="204.61" y1="146.82" x2="414.04" y2="287.43"/><path class="cls-3" d="M595.68,224.45A143.72,143.72,0,0,1,452,368.16V224.45Z" transform="translate(-443.47 -215.95)"/><path class="cls-3" d="M452,711.84A143.72,143.72,0,0,1,595.68,855.55H452Z" transform="translate(-443.47 -215.95)"/><path class="cls-4" d="M1324.32,855.55A143.72,143.72,0,0,1,1468,711.84V855.55Z" transform="translate(-443.47 -215.95)"/><path class="cls-5" d="M1324.32,224.45A143.72,143.72,0,0,0,1468,368.16V224.45Z" transform="translate(-443.47 -215.95)"/><line class="cls-6" x1="883.82" y1="123.4" x2="860.94" y2="134.62"/><line class="cls-7" x1="815.01" y1="157.14" x2="562.38" y2="281.02"/><polyline class="cls-6" points="539.41 292.28 516.53 303.5 493.76 292.06"/><line class="cls-8" x1="446.12" y1="268.13" x2="184.12" y2="136.52"/><line class="cls-6" x1="160.3" y1="124.56" x2="137.52" y2="113.11"/><polygon points="854.53 115.94 880.75 124.9 871.78 151.12 886.72 143.79 895.68 117.58 869.47 108.62 854.53 115.94"/><line class="cls-2" x1="204.61" y1="139.82" x2="434.96" y2="242.65"/><line class="cls-6" x1="881.39" y1="522.13" x2="858.51" y2="510.9"/><line class="cls-7" x1="812.58" y1="488.38" x2="559.95" y2="364.5"/><polyline class="cls-6" points="536.99 353.24 514.1 342.02 491.33 353.46"/><line class="cls-9" x1="444.04" y1="377.21" x2="183.94" y2="507.87"/><line class="cls-6" x1="160.3" y1="519.75" x2="137.52" y2="531.19"/><polygon points="869.35 494.41 878.33 520.62 852.11 529.58 867.04 536.9 893.25 527.94 884.29 501.73 869.35 494.41"/><path class="cls-10" d="M610.24,387.2c-22.92-.8-41.52-18.6-41.52-41.53a41.52,41.52,0,1,1,83,0C651.76,368.6,632.83,388,610.24,387.2Z" transform="translate(-443.47 -215.95)"/><circle class="cls-11" cx="169.2" cy="521.36" r="41.52"/><text class="cls-12" transform="translate(151.82 141.71)">α</text><g class="cls-13"><line class="cls-14" x1="201.26" y1="496.83" x2="406.95" y2="364.09"/><polygon points="398.75 391.32 404.25 365.83 378.76 360.34 391.91 351.85 417.39 357.35 411.9 382.83 398.75 391.32"/></g><text class="cls-15" transform="translate(155.82 535.93)">β</text><path class="cls-16" d="M810.12,540.56c15-32.34,51.77-48.2,84.61-34.31a64.56,64.56,0,0,1-50.3,118.92C811.59,611.28,795.31,572.43,810.12,540.56Z" transform="translate(-443.47 -215.95)"/><path class="cls-16" d="M970.79,649c-34.46,9.19-70.19-8.86-80.57-43a64.56,64.56,0,0,1,123.54-37.58C1024.14,602.57,1004.75,640,970.79,649Z" transform="translate(-443.47 -215.95)"/><g class="cls-13"><line class="cls-14" x1="566.47" y1="294.51" x2="892.81" y2="155.95"/><polygon points="880.08 181.39 889.86 157.21 865.67 147.45 880.08 141.33 904.25 151.1 894.49 175.27 880.08 181.39"/></g><path class="cls-16" d="M842.62,493.81c5.57-35.22,36.55-60.57,71.94-56.23a64.57,64.57,0,1,1-15.72,128.17C863.45,561.41,837.13,528.53,842.62,493.81Z" transform="translate(-443.47 -215.95)"/><path class="cls-17" d="M974.59,552.79c-22.47-27.7-20.59-67.68,6.31-91.09a64.56,64.56,0,0,1,84.78,97.4C1038.78,582.51,996.73,580.08,974.59,552.79Z" transform="translate(-443.47 -215.95)"/><g class="cls-13"><line class="cls-14" x1="657.07" y1="405.57" x2="887.94" y2="487"/><polygon points="861.38 497.18 884.91 485.93 873.64 462.41 888.4 467.62 899.66 491.13 876.14 502.39 861.38 497.18"/></g><g class="cls-13"><line class="cls-14" x1="651.71" y1="421.66" x2="863.81" y2="543.9"/><polygon points="835.84 549.06 861.03 542.3 854.25 517.12 867.81 524.93 874.58 550.11 849.4 556.88 835.84 549.06"/></g><path class="cls-16" d="M995.46,636.21c-15.13-32.29-3.68-70.64,28.06-86.89a64.56,64.56,0,0,1,58.83,114.95C1050.61,680.52,1010.38,668,995.46,636.21Z" transform="translate(-443.47 -215.95)"/><text class="cls-18" transform="translate(443.29 520.5)">Cloud of <tspan x="-72.72" y="52.8">Quantum Doubt</tspan></text></svg>