<svg id="a2a48797-a620-40f5-abd5-faad13b453fa" data-name="Layer 1" xmlns="http://www.w3.org/2000/svg" viewBox="0 0 1033.06215 648.09115"><defs><style>.ed762b26-bb5b-4a60-80c1-039cfb4aeec8{fill:#fff;}.a1d63686-6acd-497e-b5b6-f0acf055b594,.a2f23d22-0886-4218-8659-6faf26997c35,.a980ee1c-416b-44f2-8583-c27b7e206071,.b1dd7eba-1f94-4b0e-b640-a0b81f868324,.b308e41e-7f8c-4f4b-8a30-416f45a9b628,.e43c5b1e-bc03-418e-86a4-d1fb17d8a5f5,.eabefe20-5868-4e6d-8749-a0cca3c4f5c4,.ed762b26-bb5b-4a60-80c1-039cfb4aeec8,.ef6b47d2-dd07-4389-a4cd-c2807e3689f0,.efb33c7a-d7ae-4a5c-be41-632a08a39ecb,.f13fbd0b-de2c-4e0d-81fe-72153da998e3,.f217b121-f29b-49f5-956a-a29bc72ccae1,.ff132343-ba9f-4651-a413-02babe2780d1{stroke:#000;stroke-miterlimit:10;}.a2f23d22-0886-4218-8659-6faf26997c35,.ed762b26-bb5b-4a60-80c1-039cfb4aeec8,.ef6b47d2-dd07-4389-a4cd-c2807e3689f0{stroke-width:16.99115px;}.b1dd7eba-1f94-4b0e-b640-a0b81f868324,.b308e41e-7f8c-4f4b-8a30-416f45a9b628,.e43c5b1e-bc03-418e-86a4-d1fb17d8a5f5,.eabefe20-5868-4e6d-8749-a0cca3c4f5c4,.efb33c7a-d7ae-4a5c-be41-632a08a39ecb,.ff132343-ba9f-4651-a413-02babe2780d1{fill:none;stroke-width:16.9912px;}.a1d63686-6acd-497e-b5b6-f0acf055b594,.a980ee1c-416b-44f2-8583-c27b7e206071,.b1dd7eba-1f94-4b0e-b640-a0b81f868324,.b308e41e-7f8c-4f4b-8a30-416f45a9b628,.e43c5b1e-bc03-418e-86a4-d1fb17d8a5f5,.eabefe20-5868-4e6d-8749-a0cca3c4f5c4,.ef6b47d2-dd07-4389-a4cd-c2807e3689f0,.efb33c7a-d7ae-4a5c-be41-632a08a39ecb,.f13fbd0b-de2c-4e0d-81fe-72153da998e3,.f217b121-f29b-49f5-956a-a29bc72ccae1,.ff132343-ba9f-4651-a413-02babe2780d1{stroke-linecap:round;}.efb33c7a-d7ae-4a5c-be41-632a08a39ecb{stroke-dasharray:50.9735;}.e69d5fd3-3f82-42fb-86a3-0d7484a0cde2,.efb33c7a-d7ae-4a5c-be41-632a08a39ecb{opacity:0.43;}.a2f23d22-0886-4218-8659-6faf26997c35{fill:#ed1c24;}.ef6b47d2-dd07-4389-a4cd-c2807e3689f0{fill:#ccc;}.b308e41e-7f8c-4f4b-8a30-416f45a9b628{stroke-dasharray:51.15702 51.15702;}.ff132343-ba9f-4651-a413-02babe2780d1{stroke-dasharray:53.30966 53.30966;}.e43c5b1e-bc03-418e-86a4-d1fb17d8a5f5{stroke-dasharray:52.92161 52.92161;}.f13fbd0b-de2c-4e0d-81fe-72153da998e3{fill:#00a99d;}.a980ee1c-416b-44f2-8583-c27b7e206071,.f13fbd0b-de2c-4e0d-81fe-72153da998e3{stroke-width:9.7092px;stroke-dasharray:77;}.a980ee1c-416b-44f2-8583-c27b7e206071{fill:#22b573;}.a9c86234-0b34-4ad1-ae1a-afaea17dcb23{font-size:50px;}.a1e64a4d-8cb6-4cb4-b3d2-3fdd675e9276,.a97183a5-07de-4724-bca0-03b0699cad28,.a9c86234-0b34-4ad1-ae1a-afaea17dcb23,.ead2735e-26f3-4ae0-9d45-fcd1d641c963{font-family:FranklinGothic-Medium, Franklin Gothic Medium;font-weight:500;}.b1dd7eba-1f94-4b0e-b640-a0b81f868324{stroke-dasharray:50.9735 50.9735;}.a1e64a4d-8cb6-4cb4-b3d2-3fdd675e9276{font-size:48px;}.a1d63686-6acd-497e-b5b6-f0acf055b594,.f217b121-f29b-49f5-956a-a29bc72ccae1{fill:#fcee21;}.a1d63686-6acd-497e-b5b6-f0acf055b594{stroke-width:15.09709px;stroke-dasharray:119.72933;}.f217b121-f29b-49f5-956a-a29bc72ccae1{stroke-width:15.09704px;stroke-dasharray:310.08627;}.a97183a5-07de-4724-bca0-03b0699cad28{font-size:44px;}.ead2735e-26f3-4ae0-9d45-fcd1d641c963{font-size:62px;}</style></defs><title>billiard 2</title><rect class="ed762b26-bb5b-4a60-80c1-039cfb4aeec8" x="644.45" y="31.9645" width="631.1" height="1016.071" transform="translate(1056.53108 -635.95442) rotate(90)"/><line class="efb33c7a-d7ae-4a5c-be41-632a08a39ecb" x1="204.60956" y1="146.81509" x2="414.04171" y2="287.42855"/><path class="a2f23d22-0886-4218-8659-6faf26997c35" d="M595.67579,224.45A143.71128,143.71128,0,0,1,451.9645,368.16129V224.45Z" transform="translate(-443.46892 -215.95442)"/><path class="a2f23d22-0886-4218-8659-6faf26997c35" d="M451.9645,711.83871A143.71128,143.71128,0,0,1,595.67579,855.55H451.9645Z" transform="translate(-443.46892 -215.95442)"/><path class="ef6b47d2-dd07-4389-a4cd-c2807e3689f0" d="M1324.32421,855.55A143.71128,143.71128,0,0,1,1468.0355,711.83871V855.55Z" transform="translate(-443.46892 -215.95442)"/><path class="ef6b47d2-dd07-4389-a4cd-c2807e3689f0" d="M1324.32421,224.45A143.71128,143.71128,0,0,0,1468.0355,368.16129V224.45Z" transform="translate(-443.46892 -215.95442)"/><line class="eabefe20-5868-4e6d-8749-a0cca3c4f5c4" x1="883.82087" y1="123.39592" x2="860.93733" y2="134.61726"/><line class="b308e41e-7f8c-4f4b-8a30-416f45a9b628" x1="815.00556" y1="157.14076" x2="562.3805" y2="281.02006"/><polyline class="eabefe20-5868-4e6d-8749-a0cca3c4f5c4" points="539.415 292.282 516.531 303.503 493.756 292.063"/><line class="ff132343-ba9f-4651-a413-02babe2780d1" x1="446.11921" y1="268.13307" x2="184.11518" y2="136.52012"/><line class="eabefe20-5868-4e6d-8749-a0cca3c4f5c4" x1="160.29664" y1="124.55531" x2="137.52192" y2="113.11482"/><polygon points="854.534 115.942 880.755 124.899 871.782 151.115 886.715 143.793 895.678 117.582 869.467 108.619 854.534 115.942"/><line class="efb33c7a-d7ae-4a5c-be41-632a08a39ecb" x1="204.60956" y1="139.81509" x2="434.95623" y2="242.64693"/><line class="eabefe20-5868-4e6d-8749-a0cca3c4f5c4" x1="881.3935" y1="522.12529" x2="858.51008" y2="510.90397"/><line class="b308e41e-7f8c-4f4b-8a30-416f45a9b628" x1="812.57819" y1="488.38048" x2="559.95319" y2="364.50114"/><polyline class="eabefe20-5868-4e6d-8749-a0cca3c4f5c4" points="536.987 353.239 514.104 342.018 491.329 353.459"/><line class="e43c5b1e-bc03-418e-86a4-d1fb17d8a5f5" x1="444.0387" y1="377.21397" x2="183.94184" y2="507.86888"/><line class="eabefe20-5868-4e6d-8749-a0cca3c4f5c4" x1="160.29664" y1="519.74656" x2="137.52192" y2="531.18706"/><polygon points="869.354 494.406 878.327 520.622 852.106 529.58 867.039 536.902 893.25 527.939 884.288 501.728 869.354 494.406"/><path class="f13fbd0b-de2c-4e0d-81fe-72153da998e3" d="M610.23964,387.19514c-22.91843-.795-41.52245-18.59024-41.52245-41.52246a41.52245,41.52245,0,0,1,83.04491,0C651.7621,368.6049,632.82979,387.97872,610.23964,387.19514Z" transform="translate(-443.46892 -215.95442)"/><circle class="a980ee1c-416b-44f2-8583-c27b7e206071" cx="169.19802" cy="521.36286" r="41.52245"/><text class="a9c86234-0b34-4ad1-ae1a-afaea17dcb23" transform="translate(151.81739 141.71475)">α</text><g class="e69d5fd3-3f82-42fb-86a3-0d7484a0cde2"><line class="b1dd7eba-1f94-4b0e-b640-a0b81f868324" x1="201.25684" y1="496.83119" x2="406.95142" y2="364.08668"/><polygon points="398.748 391.322 404.251 365.829 378.756 360.342 391.908 351.854 417.394 357.347 411.901 382.834 398.748 391.322"/></g><text class="a1e64a4d-8cb6-4cb4-b3d2-3fdd675e9276" transform="translate(155.81501 535.93358)">β</text><path class="a1d63686-6acd-497e-b5b6-f0acf055b594" d="M810.11607,540.557c15.02184-32.33932,51.77578-48.20175,84.61641-34.31A64.56436,64.56436,0,0,1,844.4261,625.17341C811.58547,611.28169,795.30941,572.43309,810.11607,540.557Z" transform="translate(-443.46892 -215.95442)"/><path class="a1d63686-6acd-497e-b5b6-f0acf055b594" d="M970.78568,649.0179c-34.45329,9.19008-70.18263-8.86216-80.56156-42.97615a64.56436,64.56436,0,1,1,123.53771-37.5854C1024.14075,602.57034,1004.74545,639.95946,970.78568,649.0179Z" transform="translate(-443.46892 -215.95442)"/><g class="e69d5fd3-3f82-42fb-86a3-0d7484a0cde2"><line class="b1dd7eba-1f94-4b0e-b640-a0b81f868324" x1="566.46723" y1="294.51069" x2="892.81403" y2="155.95433"/><polygon points="880.081 181.389 889.856 157.21 865.672 147.45 880.081 141.332 904.254 151.097 894.49 175.271 880.081 181.389"/></g><path class="a1d63686-6acd-497e-b5b6-f0acf055b594" d="M842.62036,493.80888c5.56519-35.221,36.55129-60.56519,71.944-56.22433a64.56436,64.56436,0,1,1-15.71967,128.16833C863.452,561.412,837.13488,528.52532,842.62036,493.80888Z" transform="translate(-443.46892 -215.95442)"/><path class="f217b121-f29b-49f5-956a-a29bc72ccae1" d="M974.588,552.78558c-22.46381-27.69231-20.58382-67.679,6.31311-91.08929a64.56436,64.56436,0,0,1,84.77618,97.4024C1038.78038,582.509,996.73006,580.08122,974.588,552.78558Z" transform="translate(-443.46892 -215.95442)"/><g class="e69d5fd3-3f82-42fb-86a3-0d7484a0cde2"><line class="b1dd7eba-1f94-4b0e-b640-a0b81f868324" x1="657.06928" y1="405.56877" x2="887.93769" y2="487.00047"/><polygon points="861.379 497.181 884.907 485.931 873.643 462.41 888.405 467.617 899.659 491.135 876.141 502.388 861.379 497.181"/></g><g class="e69d5fd3-3f82-42fb-86a3-0d7484a0cde2"><line class="b1dd7eba-1f94-4b0e-b640-a0b81f868324" x1="651.70842" y1="421.65854" x2="863.81059" y2="543.90427"/><polygon points="835.838 549.061 861.026 542.299 854.25 517.116 867.812 524.932 874.579 550.111 849.401 556.877 835.838 549.061"/></g><path class="a1d63686-6acd-497e-b5b6-f0acf055b594" d="M995.45934,636.2094c-15.1343-32.28684-3.6806-70.64413,28.06219-86.88859a64.56436,64.56436,0,1,1,58.8264,114.95077C1050.60515,680.516,1010.37685,668.03375,995.45934,636.2094Z" transform="translate(-443.46892 -215.95442)"/><text class="a97183a5-07de-4724-bca0-03b0699cad28" transform="translate(443.29408 520.50419)">Cloud of <tspan x="-72.72461" y="52.80029">Quantum Doubt</tspan></text><text class="ead2735e-26f3-4ae0-9d45-fcd1d641c963" transform="translate(949.84004 86.82322)">?</text><text class="ead2735e-26f3-4ae0-9d45-fcd1d641c963" transform="translate(949.84004 604.27672)">?</text></svg>