<svg id="Layer_1" data-name="Layer 1" xmlns="http://www.w3.org/2000/svg" viewBox="0 0 1033.06 648.09"><defs><style>.cls-1{fill:#fff;}.cls-1,.cls-10,.cls-2,.cls-3,.cls-4,.cls-5,.cls-6,.cls-7,.cls-8,.cls-9{stroke:#000;stroke-miterlimit:10;}.cls-1,.cls-2,.cls-3,.cls-4{stroke-width:16.99px;}.cls-2{fill:#ed1c24;}.cls-10,.cls-3{fill:#22b573;}.cls-10,.cls-3,.cls-4,.cls-5,.cls-6,.cls-7,.cls-8,.cls-9{stroke-linecap:round;}.cls-4,.cls-9{fill:#00a99d;}.cls-5,.cls-6,.cls-7,.cls-8{fill:none;stroke-width:16.99px;}.cls-6{stroke-dasharray:51.16 51.16;}.cls-7{stroke-dasharray:53.31 53.31;}.cls-8{stroke-dasharray:52.92 52.92;}.cls-10,.cls-9{stroke-width:9.71px;stroke-dasharray:77;}.cls-11{font-size:50px;}.cls-11,.cls-12{font-family:FranklinGothic-Medium, Franklin Gothic Medium;font-weight:500;}.cls-12{font-size:48px;}</style></defs><rect class="cls-1" x="644.45" y="31.96" width="631.1" height="1016.07" transform="translate(1056.53 -635.95) rotate(90)"/><path class="cls-2" d="M595.68,224.45A143.72,143.72,0,0,1,452,368.16V224.45Z" transform="translate(-443.47 -215.95)"/><path class="cls-2" d="M452,711.84A143.72,143.72,0,0,1,595.68,855.55H452Z" transform="translate(-443.47 -215.95)"/><path class="cls-3" d="M1324.32,855.55A143.72,143.72,0,0,1,1468,711.84V855.55Z" transform="translate(-443.47 -215.95)"/><path class="cls-4" d="M1324.32,224.45A143.72,143.72,0,0,0,1468,368.16V224.45Z" transform="translate(-443.47 -215.95)"/><line class="cls-5" x1="883.82" y1="123.4" x2="860.94" y2="134.62"/><line class="cls-6" x1="815.01" y1="157.14" x2="562.38" y2="281.02"/><polyline class="cls-5" points="539.41 292.28 516.53 303.5 493.76 292.06"/><line class="cls-7" x1="446.12" y1="268.13" x2="184.12" y2="136.52"/><line class="cls-5" x1="160.3" y1="124.56" x2="137.52" y2="113.11"/><polygon points="854.53 115.94 880.75 124.9 871.78 151.12 886.72 143.79 895.68 117.58 869.47 108.62 854.53 115.94"/><line class="cls-5" x1="881.39" y1="522.13" x2="858.51" y2="510.9"/><line class="cls-6" x1="812.58" y1="488.38" x2="559.95" y2="364.5"/><polyline class="cls-5" points="536.99 353.24 514.1 342.02 491.33 353.46"/><line class="cls-8" x1="444.04" y1="377.21" x2="183.94" y2="507.87"/><line class="cls-5" x1="160.3" y1="519.75" x2="137.52" y2="531.19"/><polygon points="869.35 494.41 878.33 520.62 852.11 529.58 867.04 536.9 893.25 527.94 884.29 501.73 869.35 494.41"/><path class="cls-9" d="M610.24,387.2c-22.92-.8-41.52-18.6-41.52-41.53a41.52,41.52,0,1,1,83,0C651.76,368.6,632.83,388,610.24,387.2Z" transform="translate(-443.47 -215.95)"/><circle class="cls-10" cx="169.2" cy="521.36" r="41.52"/><text class="cls-11" transform="translate(151.82 141.71)">α</text><text class="cls-12" transform="translate(155.82 535.93)">β</text></svg>