<svg xmlns="http://www.w3.org/2000/svg" viewBox="0 0 1416.89726 871.56916"><defs><style>.a,.d{fill:none;}.a,.b,.c,.d,.e,.g,.h,.i{stroke:#000;stroke-miterlimit:10;}.a,.b,.c,.d,.e{stroke-linecap:round;}.a{stroke-width:22.4616px;}.b,.g{fill:#d4145a;}.b,.c{stroke-width:22.46162px;stroke-dasharray:178.1346;}.c,.h{fill:#838bc5;}.d{stroke-width:20.84314px;}.e{fill:#ff0;stroke-width:15.80571px;stroke-dasharray:109.0594;}.f{font-size:97.99541px;font-family:FranklinGothic-Medium, Franklin Gothic Medium;font-weight:500;}.g,.h,.i{stroke-width:16px;}.i{fill:#ed1c24;}.j{fill:#fff;}</style></defs><line class="a" x1="1305.24778" y1="25.67236" x2="1305.24778" y2="860.33836"/><polygon points="1267.168 70.413 1305.248 32.311 1343.327 70.413 1343.327 38.079 1305.248 0 1267.168 38.079 1267.168 70.413"/><line class="a" x1="462.80727" y1="25.67237" x2="462.80727" y2="860.33832"/><polygon points="424.728 70.413 462.807 32.311 500.887 70.413 500.887 38.079 462.807 0 424.728 38.079 424.728 70.413"/><path class="b" d="M730.78942,524.59738c49.60739,18.80547,77.107,71.6351,60.03249,121.86459a96.05956,96.05956,0,0,1-181.89707-61.8321C625.9993,534.40038,681.89262,506.06129,730.78942,524.59738Z" transform="translate(-76.35806 -140.3232)"/><path class="c" d="M745.29809,779.98414c-21.70019,48.41116-76.06059,72.74514-125.19491,52.73622a96.05955,96.05955,0,1,1,72.45869-177.93114C741.69619,674.79813,766.68744,732.26643,745.29809,779.98414Z" transform="translate(-76.35806 -140.3232)"/><path class="b" d="M487.24592,441.21734c31.64325,42.58219,26.32389,101.90251-15.13576,135.0029A96.05956,96.05956,0,0,1,352.243,426.08157C393.70266,392.98117,456.05593,399.2451,487.24592,441.21734Z" transform="translate(-76.35806 -140.3232)"/><path class="b" d="M435.55876,806.54726C382.82948,812.392,334.29111,777.87792,326.622,725.38294a96.05956,96.05956,0,0,1,190.10114-27.77249C524.39225,750.10543,487.53275,800.78623,435.55876,806.54726Z" transform="translate(-76.35806 -140.3232)"/><path class="c" d="M578.92064,412.922c43.98678-29.65978,103.00122-21.62911,134.168,21.303A96.05956,96.05956,0,0,1,557.6176,547.09C526.4508,504.15782,535.56394,442.15687,578.92064,412.922Z" transform="translate(-76.35806 -140.3232)"/><path class="c" d="M434.47025,385.88194c43.98678-29.65978,103.00121-21.62911,134.168,21.303A96.05955,96.05955,0,0,1,413.16721,520.05C382.00041,477.11781,391.11355,415.11686,434.47025,385.88194Z" transform="translate(-76.35806 -140.3232)"/><path class="c" d="M421.67238,753.48813c3.37672-52.94466,45.77638-94.77126,98.80627-93.232a96.05956,96.05956,0,0,1-5.57432,192.03823C461.87444,850.7551,418.344,805.6744,421.67238,753.48813Z" transform="translate(-76.35806 -140.3232)"/><path class="b" d="M656.97285,733.122c-23.27379,47.67462-78.40186,70.2155-126.85464,48.60839a96.05955,96.05955,0,1,1,78.24625-175.463C656.81724,627.87445,679.91326,686.13027,656.97285,733.122Z" transform="translate(-76.35806 -140.3232)"/><path class="c" d="M671.84318,501.0551c46.83764,24.91534,67.45051,80.79293,44.17383,128.46614a96.05956,96.05956,0,0,1-172.64-84.29232C566.65372,497.55571,625.67645,476.49665,671.84318,501.0551Z" transform="translate(-76.35806 -140.3232)"/><path class="b" d="M654.14683,444.61553c23.85169,47.38814,8.41355,104.91082-38.11926,130.391a96.05956,96.05956,0,0,1-92.27168-168.51021C570.2887,381.01615,630.6368,397.90619,654.14683,444.61553Z" transform="translate(-76.35806 -140.3232)"/><path class="c" d="M372.49238,503.00666c52.95139-3.26953,99.75107,33.56775,104.85426,86.374a96.05956,96.05956,0,1,1-191.22822,18.48029C281.01523,555.05469,320.29949,506.22935,372.49238,503.00666Z" transform="translate(-76.35806 -140.3232)"/><path class="b" d="M579.597,637.42036c-21.59575,48.45784-75.90355,72.909-125.08091,53.00606a96.05956,96.05956,0,0,1,72.07486-178.087C575.76832,532.24237,600.88342,589.65664,579.597,637.42036Z" transform="translate(-76.35806 -140.3232)"/><path class="d" d="M840.79766,552.55745c86.005,20.2525,139.65418,48.91608,139.65418,80.69574,0,61.368-200.0553,111.11664-446.83612,111.11664S86.77963,694.62123,86.77963,633.25319c0-35.68164,67.63237-67.43506,172.75781-87.7655" transform="translate(-76.35806 -140.3232)"/><polygon points="797.27 455.811 770.437 413.637 812.627 386.829 783.34 380.309 741.171 407.122 767.983 449.292 797.27 455.811"/><circle class="e" cx="807.32967" cy="557.16292" r="77.4368"/><text class="f" transform="translate(773.92412 589.71349)">e</text><text class="f" transform="translate(826.6751 559.9547)">-</text><polygon class="g" points="1208.041 266.189 1208.052 692.349 1318.245 742.411 1318.234 316.244 1208.041 266.189"/><polygon class="g" points="1288.882 230.675 1208.041 266.189 1315.505 314.555 1396.345 279.042 1288.882 230.675"/><polygon class="g" points="1399.089 706.594 1318.248 742.107 1318.237 315.941 1399.077 280.427 1399.089 706.594"/><polygon class="h" points="1208.041 479.269 1317.9 528.512 1398.773 492.994 1399.089 706.594 1318.245 742.411 1208.052 692.349 1208.041 479.269"/><path d="M1364.17073,590.37132l-10.04473-4.4752-20.87624-55.26q-.46936-1.23367-1.52382-4.00089-.46818-1.2264-1.44058-3.85v52.48917l-7.61011-3.39052V500.99447l10.49652,3.63011,19.21693,50.14607c.165.427,1.36449,3.56854,3.60808,9.45088V512.51834l8.174,2.82687Z" transform="translate(-76.35806 -140.3232)"/><path d="M1316.46192,760.36l8.86673,2.67115c1.07648,6.971,5.23258,12.55867,12.56255,16.80781q5.08245,2.94627,7.85966,2.05661,2.78074-.90186,2.78442-4.61725a14.71443,14.71443,0,0,0-1.26643-5.7052q-1.263-2.99573-5.37855-6.59716l-10.06067-8.843a47.90438,47.90438,0,0,1-7.47485-7.879,28.59085,28.59085,0,0,1-3.81692-7.95826,29.46543,29.46543,0,0,1-1.425-8.83187q0-8.52267,5.05516-11.05167c3.40406-1.704,7.80073-1.18854,13.22115,1.58365a39.67255,39.67255,0,0,1,12.3168,10.01844,31.71306,31.71306,0,0,1,7.07069,14.26272l-9.34992-2.14428a18.68764,18.68764,0,0,0-9.84415-12.61006q-4.42553-2.31284-6.72341-1.2467-2.29539,1.05774-2.29267,4.54251c0,3.67436,2.40032,7.54448,7.24326,11.64733l9.01658,7.667c5.56126,4.73759,9.3328,9.332,11.2644,13.75169a31.88053,31.88053,0,0,1,2.91305,12.76811q0,9.81308-6.10748,11.88425c-4.02417,1.364-9.18178.17432-15.43-3.51761a47.86629,47.86629,0,0,1-13.50393-11.96218A38.85282,38.85282,0,0,1,1316.46192,760.36Z" transform="translate(-76.35806 -140.3232)"/><line class="i" x1="1318.24775" y1="740.44253" x2="1318.23691" y2="314.27625"/><polygon class="j" points="1336.327 743.149 1316.491 751.604 1326.77 765.315 1345.472 760.017 1336.327 743.149"/><path class="j" d="M1472.93617,410.65957,1483.383,415.383l.05053,8.21276,9.82181.97873s-.46809-14.21277-.46809-14.42553-14.80851-5.48937-14.80851-5.48937Z" transform="translate(-76.35806 -140.3232)"/><polygon class="j" points="1210.599 256.145 1200.036 260.996 1200 274.561 1183.791 272.615 1180.727 252.826 1213.855 249.251 1210.599 256.145"/></svg>